PathFileType	4	(X/Y/Z)	D:\TRACE\spotREDO_2-26-24\spot_justBody_Motion_1_3-platform.trc
DataRate	CameraRate	NumFrames	NumMarkers	Units	OrigDataRate	OrigDataStartFrame	OrigNumFrames
100.00	100.00	      42	5	mm	100.00	1751	      7000
Frame#	Time	Left_Front			Right_Front			Left_Aft			Right_Aft			Post			
		X1	Y1	Z1	X2	Y2	Z2	X3	Y3	Z3	X4	Y4	Z4	X5	Y5	Z5	

1751	17.500	-681.60223	-28.49911	-581.35321	733.02509	-16.41919	-496.80640	-753.08984	30.07114	636.48883	817.28674	38.24065	639.85590	27.70981	581.14362	-1013.32074	
1752	17.510	-680.84283	-28.68291	-581.33325	733.87170	-16.57339	-496.98273	-752.35181	30.19123	636.34290	818.37347	38.03680	639.36133	28.67823	580.96606	-1013.58441	
1753	17.520	-679.80859	-28.87193	-581.37531	734.85217	-16.48156	-497.06445	-751.28400	30.16742	636.34021	819.14484	37.98432	639.44373	29.65689	580.88751	-1013.63361	
1754	17.530	-678.84680	-28.99142	-581.47852	736.02539	-16.38046	-497.06491	-750.27722	30.19309	636.30536	819.95142	38.02119	639.41046	30.93555	580.78986	-1013.47131	
1755	17.540	-677.64008	-28.79457	-581.41907	736.85138	-16.45931	-497.00217	-749.42291	30.30309	636.24261	820.91431	38.15682	639.37701	31.97037	580.86401	-1013.65546	
1756	17.550	-677.11041	-28.83770	-581.36389	737.67767	-16.43634	-496.99066	-748.12531	29.84949	636.23938	822.06372	37.92545	639.35175	32.47241	580.87164	-1014.17981	
1757	17.560	-676.09601	-28.92245	-581.41144	738.74152	-16.48347	-497.06015	-747.52136	30.74301	636.11298	822.64490	38.00860	639.34698	33.34837	580.83734	-1013.89893	
1758	17.570	-675.09393	-28.80827	-581.40405	739.56012	-16.73179	-497.11926	-746.86267	30.94105	636.13770	823.80560	38.23492	639.28412	34.32095	580.70020	-1013.87701	
1759	17.580	-674.20966	-28.85210	-581.53613	740.43970	-16.64187	-497.13974	-745.79614	30.76741	636.08783	824.79248	38.31714	639.26636	35.02953	580.66919	-1014.04980	
1760	17.590	-673.34235	-28.83489	-581.46808	741.51318	-16.48034	-497.00513	-744.61816	30.30988	636.24359	825.64215	37.88895	639.30237	36.20237	580.81696	-1013.86249	
1761	17.600	-672.62805	-28.78438	-581.51508	742.37311	-16.45995	-496.93582	-744.03705	30.35707	636.28229	826.31616	38.04542	639.32599	37.15313	580.90735	-1013.87567	
1762	17.610	-671.42181	-28.83726	-581.47101	743.24872	-16.32465	-497.05884	-742.94507	30.41665	636.30640	827.44196	38.01361	639.23633	37.81081	580.91125	-1013.63837	
1763	17.620	-670.70728	-28.91388	-581.46826	743.95605	-16.35538	-497.15994	-741.97607	30.45746	636.27271	828.15540	37.91436	639.18628	38.73658	580.84094	-1013.52075	
1764	17.630	-669.55725	-28.98935	-581.43134	744.99103	-16.60183	-497.06152	-741.29138	30.67966	636.15149	829.31134	38.06026	639.31976	39.58831	580.93707	-1013.70050	
1765	17.640	-669.03741	-28.98808	-581.35291	745.90503	-16.63193	-497.22055	-740.39606	30.57595	636.02356	830.22180	38.17991	639.36823	40.43013	580.93854	-1014.02124	
1766	17.650	-667.81409	-28.92714	-581.32214	746.57758	-16.24487	-497.07971	-739.54034	30.35341	636.13501	830.84564	38.07265	639.23682	41.38914	581.10413	-1013.97650	
1767	17.660	-667.04114	-28.93865	-581.43372	747.57910	-16.28917	-496.92773	-738.65070	30.31303	636.22345	831.58850	37.90221	639.19904	42.05993	581.15015	-1013.80011	
1768	17.670	-666.22894	-28.88363	-581.30273	748.50507	-16.28778	-496.95993	-737.66107	30.18473	636.25348	832.87122	38.03374	639.51154	42.95994	581.20905	-1013.69873	
1769	17.680	-665.50769	-28.81837	-581.29120	749.18817	-16.21347	-496.88641	-736.91766	30.15936	636.28607	833.26648	37.95889	639.42493	43.96586	581.17139	-1013.63715	
1770	17.690	-664.53571	-28.59469	-581.28796	750.12970	-16.30238	-497.02567	-736.15112	30.23232	636.38190	834.26898	37.68101	639.31842	44.75299	581.38971	-1013.65625	
1771	17.700	-663.51520	-28.51328	-581.31586	750.88245	-15.99815	-496.93323	-735.27832	30.05169	636.37347	835.37628	37.72398	639.31158	45.72929	581.50745	-1013.56085	
1772	17.710	-663.00757	-28.46251	-581.42120	751.68298	-15.73615	-496.87875	-734.43359	30.05765	636.38226	835.72760	37.73270	639.48499	46.33019	581.61499	-1013.39575	
1773	17.720	-662.16602	-28.27670	-581.26306	752.60852	-15.84046	-496.88666	-733.79114	30.19036	636.38196	836.63812	37.79452	639.49213	47.13936	581.74969	-1013.03326	
1774	17.730	-661.23718	-28.18211	-581.18286	753.28162	-15.75579	-496.90372	-733.02008	30.06129	636.42059	837.60840	37.66531	639.39722	47.84492	581.87500	-1012.97687	
1775	17.740	-660.66589	-28.08850	-581.37274	753.93420	-15.78130	-496.86588	-732.00171	29.74733	636.24890	838.44641	37.63531	639.59613	48.41964	582.19397	-1012.99750	
1776	17.750	-659.88837	-28.13182	-581.26648	754.69965	-15.65902	-496.96567	-731.44012	29.58686	636.36615	838.95850	37.47262	639.76599	49.54977	582.39691	-1012.75555	
1777	17.760	-659.19849	-27.99119	-581.25555	755.65723	-15.32177	-496.85580	-730.57281	29.59937	636.42706	839.69965	37.32742	639.67224	50.20543	582.48273	-1012.52490	
1778	17.770	-658.53546	-27.84863	-581.17480	756.19910	-15.21436	-496.83627	-730.14471	29.38727	636.40320	840.41473	37.18147	639.52118	50.91382	582.45557	-1012.49786	
1779	17.780	-657.79657	-27.66561	-581.18231	756.75714	-15.11290	-496.91739	-729.08148	29.35985	636.51416	841.35095	37.01058	639.72168	52.05989	582.69562	-1012.28918	
1780	17.790	-657.01129	-27.42772	-581.11279	757.74109	-15.00787	-496.92767	-728.49030	29.36814	636.60590	841.68011	36.92787	639.71252	52.67090	583.07330	-1012.30090	
1781	17.800	-656.30402	-27.34213	-580.96570	758.33521	-15.04883	-496.84335	-727.92029	29.17558	636.65631	842.28149	36.54604	639.64178	52.80958	583.37201	-1012.45361	
1782	17.810	-655.73444	-27.37322	-580.94733	758.90961	-14.94786	-496.69370	-727.27771	28.91311	636.72217	843.23187	36.57374	639.87787	53.53421	583.59442	-1012.17578	
1783	17.820	-655.03046	-27.17950	-580.97766	759.25952	-14.78528	-496.78409	-726.62341	28.79781	636.79877	843.88031	36.44364	639.84143	53.92967	583.76935	-1012.02704	
1784	17.830	-654.21521	-26.88652	-580.98175	760.42395	-14.50677	-496.80939	-725.60681	28.65984	636.89282	844.73108	36.28204	639.94092	54.87835	584.10077	-1011.56500	
1785	17.840	-653.93695	-26.78664	-581.01489	760.94958	-14.47999	-496.58438	-725.27295	28.32891	636.88269	845.07605	36.15766	640.06171	55.96657	584.48462	-1011.13385	
1786	17.850	-653.21765	-26.66526	-580.89825	761.63257	-14.45871	-496.52698	-724.71631	28.19580	637.01019	845.43469	35.97850	640.09314	55.96432	584.74860	-1011.32147	
1787	17.860	-652.72485	-26.45217	-580.92676	762.07813	-14.36737	-496.46945	-724.33130	28.14070	636.97919	846.43970	35.91208	640.14972	56.51588	584.96533	-1010.98840	
1788	17.870	-651.88928	-26.29561	-580.73096	762.74878	-14.17540	-496.43839	-723.52307	27.95215	636.99451	847.24457	35.88607	640.25830	57.11264	585.18762	-1010.69550	
1789	17.880	-651.60358	-26.04256	-580.85022	763.03625	-14.08704	-496.40936	-722.98584	27.78777	636.91852	847.72870	35.94766	640.31946	57.89560	585.71179	-1010.15955	
1790	17.890	-650.94983	-26.01937	-580.81946	763.77386	-13.95295	-496.24289	-722.39032	27.60077	636.83899	847.88177	35.66109	640.21564	58.52487	585.99127	-1009.72076	
1791	17.900	-650.49030	-25.88895	-580.72784	764.18756	-13.56659	-496.19568	-722.05493	27.46104	636.98688	848.21960	35.57144	640.28259	58.82958	586.23212	-1009.67767	
1792	17.910	-650.06281	-25.58428	-580.66553	764.63116	-13.33534	-496.28857	-721.62531	27.49644	637.12085	848.75958	35.17397	640.26245	59.04016	586.65289	-1009.75616	
